# xmcd
#
# Track frame offsets:
#	183
#	17665
#	41698
#	61298
#	83110
#	104795
#	121330
#	142123
#	169628
#	193063
#	213935
#	238315
#	260045
#	280308
#	296350
#
# Disc length: 4212
#
# Revision: 1
# Processed by: cddbd v1.5.1PL0 Copyright (c) Steve Scherf et al.
# Submitted via: CDex 1.50beta10
# Normalized: r0:TDELIM( - )
#
DISCID=e810720f
DTITLE=Divers artistes - Blues of Alligator - Best of the Blues
DYEAR=1980
DGENRE=Blues
TTITLE0=Hound Dog Taylor and the House Rockers - She's Gone
TTITLE1=Lonnie Brooks and Johnny Winter - Wound Up Tight
TTITLE2=Koko Taylor and Lonnie Brooks - It's a Dirty Job
TTITLE3=Little Charlie and  the Nightcats - When Girls Do It
TTITLE4=Clarence "Gatemouth" Brown - Got my Mojo Working
TTITLE5=James Cotton - Ain't Doin' Too Bad
TTITLE6=Albert Collins - Brick
TTITLE7=Katie Webster - Pussycat Moan
TTITLE8=Lonnie Mack - Cincinnati Jail
TTITLE9=The Kinsey Report - Midnight Drive
TTITLE10=Johnny Winter - Don't Take Advantage Of Me
TTITLE11=Roy Buchanan - Beer Drinking Woman
TTITLE12=Kenny Neal - Our Love Is Running Out
TTITLE13=Saffire The Uppity Blues Women - Three Time Loser
TTITLE14=Sonny Terry - Whoo Wee Baby
EXTD=YEAR: 1980
EXTT0=
EXTT1=
EXTT2=
EXTT3=
EXTT4=
EXTT5=
EXTT6=
EXTT7=
EXTT8=
EXTT9=
EXTT10=
EXTT11=
EXTT12=
EXTT13=
EXTT14=
PLAYORDER=
